<svg width="28" height="28" viewBox="0 0 24 24" fill="none" xmlns="http://www.w3.org/2000/svg"><path fill-rule="evenodd" clip-rule="evenodd" d="M24 12c0 6.627-5.373 12-12 12S0 18.627 0 12 5.373 0 12 0s12 5.373 12 12zm-11.986-.574l5.406-3.172a1.714 1.714 0 0 0-1.406-.754h-8c-.567 0-1.097.28-1.417.749l5.417 3.177zm0 1.137c.201 0 .398-.054.572-.155l5.143-3.005v5.525c0 .947-.768 1.715-1.715 1.715h-8A1.714 1.714 0 0 1 6.3 14.928V9.403l5.143 3.011c.174.099.371.15.571.149z" fill="rgb(152, 178, 191)"></path></svg>