<svg width="28" height="28" viewBox="0 0 24 24" fill="none" xmlns="http://www.w3.org/2000/svg"><path fill-rule="evenodd" clip-rule="evenodd" d="M12 0C5.373 0 0 5.373 0 12s5.373 12 12 12 12-5.373 12-12S18.627 0 12 0zm.375 8.665c-1.165.495-3.492 1.518-6.981 3.07-.567.23-.864.456-.89.676-.047.372.41.518 1.03.718l.263.085c.61.202 1.433.44 1.86.45.388.008.82-.155 1.299-.49 3.26-2.248 4.943-3.383 5.049-3.408.074-.017.178-.039.248.025.07.063.063.183.055.216-.045.196-1.835 1.896-2.762 2.776-.29.274-.494.469-.536.513-.094.1-.19.194-.281.284-.568.56-.994.978.023 1.663.489.329.88.6 1.27.872.427.296.852.592 1.402.96.14.094.274.191.404.286.496.36.942.685 1.492.634.32-.03.65-.338.818-1.254.397-2.164 1.176-6.854 1.356-8.787a2.202 2.202 0 0 0-.02-.48.519.519 0 0 0-.17-.332c-.144-.119-.365-.144-.464-.142-.45.008-1.141.253-4.465 1.665z" fill="rgb(152, 178, 191)"></path></svg>