<svg width="28" height="28" viewBox="0 0 24 24" fill="none" xmlns="http://www.w3.org/2000/svg"><path fill-rule="evenodd" clip-rule="evenodd" d="M12 0C5.373 0 0 5.373 0 12s5.373 12 12 12 12-5.373 12-12S18.627 0 12 0zm5.881 9.781v-.375a5.372 5.372 0 0 0 1.444-1.537 5.63 5.63 0 0 1-1.688.469 3.03 3.03 0 0 0 1.294-1.632c-.581.338-1.2.581-1.875.713A2.927 2.927 0 0 0 14.92 6.5a2.937 2.937 0 0 0-2.944 2.944c0 .225.019.468.075.675a8.363 8.363 0 0 1-6.056-3.075A3.009 3.009 0 0 0 5.6 8.525c0 1.031.525 1.931 1.313 2.456a2.888 2.888 0 0 1-1.332-.375v.038a2.919 2.919 0 0 0 2.363 2.868 2.725 2.725 0 0 1-1.331.056 2.91 2.91 0 0 0 2.737 2.045 5.95 5.95 0 0 1-3.656 1.256c-.225 0-.469-.019-.694-.038a8.442 8.442 0 0 0 4.519 1.313c5.4 0 8.362-4.481 8.362-8.363z" fill="rgb(152, 178, 191)"></path></svg>